<?xml version="1.0" encoding="utf-8" standalone="no"?>
<!DOCTYPE svg PUBLIC "-//W3C//DTD SVG 1.1//EN"
  "http://www.w3.org/Graphics/SVG/1.1/DTD/svg11.dtd">
<svg xmlns:xlink="http://www.w3.org/1999/xlink" width="720pt" height="432pt" viewBox="0 0 720 432" xmlns="http://www.w3.org/2000/svg" version="1.1">
 <metadata>
  <rdf:RDF xmlns:dc="http://purl.org/dc/elements/1.1/" xmlns:cc="http://creativecommons.org/ns#" xmlns:rdf="http://www.w3.org/1999/02/22-rdf-syntax-ns#">
   <cc:Work>
    <dc:type rdf:resource="http://purl.org/dc/dcmitype/StillImage"/>
    <dc:date>2023-11-01T16:11:52.307872</dc:date>
    <dc:format>image/svg+xml</dc:format>
    <dc:creator>
     <cc:Agent>
      <dc:title>Matplotlib v3.7.1, https://matplotlib.org/</dc:title>
     </cc:Agent>
    </dc:creator>
   </cc:Work>
  </rdf:RDF>
 </metadata>
 <defs>
  <style type="text/css">*{stroke-linejoin: round; stroke-linecap: butt}</style>
 </defs>
 <g id="figure_1">
  <g id="patch_1">
   <path d="M 0 432 
L 720 432 
L 720 0 
L 0 0 
z
" style="fill: #ffffff"/>
  </g>
  <g id="axes_1">
   <g id="patch_2">
    <path d="M 90 345.6 
L 648 345.6 
L 648 51.84 
L 90 51.84 
z
" style="fill: #ffffff"/>
   </g>
   <g id="matplotlib.axis_1">
    <g id="xtick_1">
     <g id="line2d_1">
      <defs>
       <path id="m6b704661fb" d="M 0 0 
L 0 3.5 
" style="stroke: #000000; stroke-width: 0.8"/>
      </defs>
      <g>
       <use xlink:href="#m6b704661fb" x="90" y="345.6" style="stroke: #000000; stroke-width: 0.8"/>
      </g>
     </g>
     <g id="text_1">
      <!-- 2007-01 -->
      <g transform="translate(52.775179 380.071846) rotate(-30) scale(0.1 -0.1)">
       <defs>
        <path id="DejaVuSans-32" d="M 1228 531 
L 3431 531 
L 3431 0 
L 469 0 
L 469 531 
Q 828 903 1448 1529 
Q 2069 2156 2228 2338 
Q 2531 2678 2651 2914 
Q 2772 3150 2772 3378 
Q 2772 3750 2511 3984 
Q 2250 4219 1831 4219 
Q 1534 4219 1204 4116 
Q 875 4013 500 3803 
L 500 4441 
Q 881 4594 1212 4672 
Q 1544 4750 1819 4750 
Q 2544 4750 2975 4387 
Q 3406 4025 3406 3419 
Q 3406 3131 3298 2873 
Q 3191 2616 2906 2266 
Q 2828 2175 2409 1742 
Q 1991 1309 1228 531 
z
" transform="scale(0.015625)"/>
        <path id="DejaVuSans-30" d="M 2034 4250 
Q 1547 4250 1301 3770 
Q 1056 3291 1056 2328 
Q 1056 1369 1301 889 
Q 1547 409 2034 409 
Q 2525 409 2770 889 
Q 3016 1369 3016 2328 
Q 3016 3291 2770 3770 
Q 2525 4250 2034 4250 
z
M 2034 4750 
Q 2819 4750 3233 4129 
Q 3647 3509 3647 2328 
Q 3647 1150 3233 529 
Q 2819 -91 2034 -91 
Q 1250 -91 836 529 
Q 422 1150 422 2328 
Q 422 3509 836 4129 
Q 1250 4750 2034 4750 
z
" transform="scale(0.015625)"/>
        <path id="DejaVuSans-37" d="M 525 4666 
L 3525 4666 
L 3525 4397 
L 1831 0 
L 1172 0 
L 2766 4134 
L 525 4134 
L 525 4666 
z
" transform="scale(0.015625)"/>
        <path id="DejaVuSans-2d" d="M 313 2009 
L 1997 2009 
L 1997 1497 
L 313 1497 
L 313 2009 
z
" transform="scale(0.015625)"/>
        <path id="DejaVuSans-31" d="M 794 531 
L 1825 531 
L 1825 4091 
L 703 3866 
L 703 4441 
L 1819 4666 
L 2450 4666 
L 2450 531 
L 3481 531 
L 3481 0 
L 794 0 
L 794 531 
z
" transform="scale(0.015625)"/>
       </defs>
       <use xlink:href="#DejaVuSans-32"/>
       <use xlink:href="#DejaVuSans-30" x="63.623047"/>
       <use xlink:href="#DejaVuSans-30" x="127.246094"/>
       <use xlink:href="#DejaVuSans-37" x="190.869141"/>
       <use xlink:href="#DejaVuSans-2d" x="254.492188"/>
       <use xlink:href="#DejaVuSans-30" x="290.576172"/>
       <use xlink:href="#DejaVuSans-31" x="354.199219"/>
      </g>
     </g>
    </g>
    <g id="xtick_2">
     <g id="line2d_2">
      <g>
       <use xlink:href="#m6b704661fb" x="159.129363" y="345.6" style="stroke: #000000; stroke-width: 0.8"/>
      </g>
     </g>
     <g id="text_2">
      <!-- 2007-07 -->
      <g transform="translate(121.904543 380.071846) rotate(-30) scale(0.1 -0.1)">
       <use xlink:href="#DejaVuSans-32"/>
       <use xlink:href="#DejaVuSans-30" x="63.623047"/>
       <use xlink:href="#DejaVuSans-30" x="127.246094"/>
       <use xlink:href="#DejaVuSans-37" x="190.869141"/>
       <use xlink:href="#DejaVuSans-2d" x="254.492188"/>
       <use xlink:href="#DejaVuSans-30" x="290.576172"/>
       <use xlink:href="#DejaVuSans-37" x="354.199219"/>
      </g>
     </g>
    </g>
    <g id="xtick_3">
     <g id="line2d_3">
      <g>
       <use xlink:href="#m6b704661fb" x="229.404517" y="345.6" style="stroke: #000000; stroke-width: 0.8"/>
      </g>
     </g>
     <g id="text_3">
      <!-- 2008-01 -->
      <g transform="translate(192.179697 380.071846) rotate(-30) scale(0.1 -0.1)">
       <defs>
        <path id="DejaVuSans-38" d="M 2034 2216 
Q 1584 2216 1326 1975 
Q 1069 1734 1069 1313 
Q 1069 891 1326 650 
Q 1584 409 2034 409 
Q 2484 409 2743 651 
Q 3003 894 3003 1313 
Q 3003 1734 2745 1975 
Q 2488 2216 2034 2216 
z
M 1403 2484 
Q 997 2584 770 2862 
Q 544 3141 544 3541 
Q 544 4100 942 4425 
Q 1341 4750 2034 4750 
Q 2731 4750 3128 4425 
Q 3525 4100 3525 3541 
Q 3525 3141 3298 2862 
Q 3072 2584 2669 2484 
Q 3125 2378 3379 2068 
Q 3634 1759 3634 1313 
Q 3634 634 3220 271 
Q 2806 -91 2034 -91 
Q 1263 -91 848 271 
Q 434 634 434 1313 
Q 434 1759 690 2068 
Q 947 2378 1403 2484 
z
M 1172 3481 
Q 1172 3119 1398 2916 
Q 1625 2713 2034 2713 
Q 2441 2713 2670 2916 
Q 2900 3119 2900 3481 
Q 2900 3844 2670 4047 
Q 2441 4250 2034 4250 
Q 1625 4250 1398 4047 
Q 1172 3844 1172 3481 
z
" transform="scale(0.015625)"/>
       </defs>
       <use xlink:href="#DejaVuSans-32"/>
       <use xlink:href="#DejaVuSans-30" x="63.623047"/>
       <use xlink:href="#DejaVuSans-30" x="127.246094"/>
       <use xlink:href="#DejaVuSans-38" x="190.869141"/>
       <use xlink:href="#DejaVuSans-2d" x="254.492188"/>
       <use xlink:href="#DejaVuSans-30" x="290.576172"/>
       <use xlink:href="#DejaVuSans-31" x="354.199219"/>
      </g>
     </g>
    </g>
    <g id="xtick_4">
     <g id="line2d_4">
      <g>
       <use xlink:href="#m6b704661fb" x="298.915811" y="345.6" style="stroke: #000000; stroke-width: 0.8"/>
      </g>
     </g>
     <g id="text_4">
      <!-- 2008-07 -->
      <g transform="translate(261.69099 380.071846) rotate(-30) scale(0.1 -0.1)">
       <use xlink:href="#DejaVuSans-32"/>
       <use xlink:href="#DejaVuSans-30" x="63.623047"/>
       <use xlink:href="#DejaVuSans-30" x="127.246094"/>
       <use xlink:href="#DejaVuSans-38" x="190.869141"/>
       <use xlink:href="#DejaVuSans-2d" x="254.492188"/>
       <use xlink:href="#DejaVuSans-30" x="290.576172"/>
       <use xlink:href="#DejaVuSans-37" x="354.199219"/>
      </g>
     </g>
    </g>
    <g id="xtick_5">
     <g id="line2d_5">
      <g>
       <use xlink:href="#m6b704661fb" x="369.190965" y="345.6" style="stroke: #000000; stroke-width: 0.8"/>
      </g>
     </g>
     <g id="text_5">
      <!-- 2009-01 -->
      <g transform="translate(331.966144 380.071846) rotate(-30) scale(0.1 -0.1)">
       <defs>
        <path id="DejaVuSans-39" d="M 703 97 
L 703 672 
Q 941 559 1184 500 
Q 1428 441 1663 441 
Q 2288 441 2617 861 
Q 2947 1281 2994 2138 
Q 2813 1869 2534 1725 
Q 2256 1581 1919 1581 
Q 1219 1581 811 2004 
Q 403 2428 403 3163 
Q 403 3881 828 4315 
Q 1253 4750 1959 4750 
Q 2769 4750 3195 4129 
Q 3622 3509 3622 2328 
Q 3622 1225 3098 567 
Q 2575 -91 1691 -91 
Q 1453 -91 1209 -44 
Q 966 3 703 97 
z
M 1959 2075 
Q 2384 2075 2632 2365 
Q 2881 2656 2881 3163 
Q 2881 3666 2632 3958 
Q 2384 4250 1959 4250 
Q 1534 4250 1286 3958 
Q 1038 3666 1038 3163 
Q 1038 2656 1286 2365 
Q 1534 2075 1959 2075 
z
" transform="scale(0.015625)"/>
       </defs>
       <use xlink:href="#DejaVuSans-32"/>
       <use xlink:href="#DejaVuSans-30" x="63.623047"/>
       <use xlink:href="#DejaVuSans-30" x="127.246094"/>
       <use xlink:href="#DejaVuSans-39" x="190.869141"/>
       <use xlink:href="#DejaVuSans-2d" x="254.492188"/>
       <use xlink:href="#DejaVuSans-30" x="290.576172"/>
       <use xlink:href="#DejaVuSans-31" x="354.199219"/>
      </g>
     </g>
    </g>
    <g id="xtick_6">
     <g id="line2d_6">
      <g>
       <use xlink:href="#m6b704661fb" x="438.320329" y="345.6" style="stroke: #000000; stroke-width: 0.8"/>
      </g>
     </g>
     <g id="text_6">
      <!-- 2009-07 -->
      <g transform="translate(401.095508 380.071846) rotate(-30) scale(0.1 -0.1)">
       <use xlink:href="#DejaVuSans-32"/>
       <use xlink:href="#DejaVuSans-30" x="63.623047"/>
       <use xlink:href="#DejaVuSans-30" x="127.246094"/>
       <use xlink:href="#DejaVuSans-39" x="190.869141"/>
       <use xlink:href="#DejaVuSans-2d" x="254.492188"/>
       <use xlink:href="#DejaVuSans-30" x="290.576172"/>
       <use xlink:href="#DejaVuSans-37" x="354.199219"/>
      </g>
     </g>
    </g>
    <g id="xtick_7">
     <g id="line2d_7">
      <g>
       <use xlink:href="#m6b704661fb" x="508.595483" y="345.6" style="stroke: #000000; stroke-width: 0.8"/>
      </g>
     </g>
     <g id="text_7">
      <!-- 2010-01 -->
      <g transform="translate(471.370662 380.071846) rotate(-30) scale(0.1 -0.1)">
       <use xlink:href="#DejaVuSans-32"/>
       <use xlink:href="#DejaVuSans-30" x="63.623047"/>
       <use xlink:href="#DejaVuSans-31" x="127.246094"/>
       <use xlink:href="#DejaVuSans-30" x="190.869141"/>
       <use xlink:href="#DejaVuSans-2d" x="254.492188"/>
       <use xlink:href="#DejaVuSans-30" x="290.576172"/>
       <use xlink:href="#DejaVuSans-31" x="354.199219"/>
      </g>
     </g>
    </g>
    <g id="xtick_8">
     <g id="line2d_8">
      <g>
       <use xlink:href="#m6b704661fb" x="577.724846" y="345.6" style="stroke: #000000; stroke-width: 0.8"/>
      </g>
     </g>
     <g id="text_8">
      <!-- 2010-07 -->
      <g transform="translate(540.500025 380.071846) rotate(-30) scale(0.1 -0.1)">
       <use xlink:href="#DejaVuSans-32"/>
       <use xlink:href="#DejaVuSans-30" x="63.623047"/>
       <use xlink:href="#DejaVuSans-31" x="127.246094"/>
       <use xlink:href="#DejaVuSans-30" x="190.869141"/>
       <use xlink:href="#DejaVuSans-2d" x="254.492188"/>
       <use xlink:href="#DejaVuSans-30" x="290.576172"/>
       <use xlink:href="#DejaVuSans-37" x="354.199219"/>
      </g>
     </g>
    </g>
    <g id="xtick_9">
     <g id="line2d_9">
      <g>
       <use xlink:href="#m6b704661fb" x="648" y="345.6" style="stroke: #000000; stroke-width: 0.8"/>
      </g>
     </g>
     <g id="text_9">
      <!-- 2011-01 -->
      <g transform="translate(610.775179 380.071846) rotate(-30) scale(0.1 -0.1)">
       <use xlink:href="#DejaVuSans-32"/>
       <use xlink:href="#DejaVuSans-30" x="63.623047"/>
       <use xlink:href="#DejaVuSans-31" x="127.246094"/>
       <use xlink:href="#DejaVuSans-31" x="190.869141"/>
       <use xlink:href="#DejaVuSans-2d" x="254.492188"/>
       <use xlink:href="#DejaVuSans-30" x="290.576172"/>
       <use xlink:href="#DejaVuSans-31" x="354.199219"/>
      </g>
     </g>
    </g>
   </g>
   <g id="matplotlib.axis_2">
    <g id="ytick_1">
     <g id="line2d_10">
      <defs>
       <path id="m85ce47787a" d="M 0 0 
L -3.5 0 
" style="stroke: #000000; stroke-width: 0.8"/>
      </defs>
      <g>
       <use xlink:href="#m85ce47787a" x="90" y="345.6" style="stroke: #000000; stroke-width: 0.8"/>
      </g>
     </g>
     <g id="text_10">
      <!-- 600 -->
      <g transform="translate(63.9125 349.399219) scale(0.1 -0.1)">
       <defs>
        <path id="DejaVuSans-36" d="M 2113 2584 
Q 1688 2584 1439 2293 
Q 1191 2003 1191 1497 
Q 1191 994 1439 701 
Q 1688 409 2113 409 
Q 2538 409 2786 701 
Q 3034 994 3034 1497 
Q 3034 2003 2786 2293 
Q 2538 2584 2113 2584 
z
M 3366 4563 
L 3366 3988 
Q 3128 4100 2886 4159 
Q 2644 4219 2406 4219 
Q 1781 4219 1451 3797 
Q 1122 3375 1075 2522 
Q 1259 2794 1537 2939 
Q 1816 3084 2150 3084 
Q 2853 3084 3261 2657 
Q 3669 2231 3669 1497 
Q 3669 778 3244 343 
Q 2819 -91 2113 -91 
Q 1303 -91 875 529 
Q 447 1150 447 2328 
Q 447 3434 972 4092 
Q 1497 4750 2381 4750 
Q 2619 4750 2861 4703 
Q 3103 4656 3366 4563 
z
" transform="scale(0.015625)"/>
       </defs>
       <use xlink:href="#DejaVuSans-36"/>
       <use xlink:href="#DejaVuSans-30" x="63.623047"/>
       <use xlink:href="#DejaVuSans-30" x="127.246094"/>
      </g>
     </g>
    </g>
    <g id="ytick_2">
     <g id="line2d_11">
      <g>
       <use xlink:href="#m85ce47787a" x="90" y="296.64" style="stroke: #000000; stroke-width: 0.8"/>
      </g>
     </g>
     <g id="text_11">
      <!-- 800 -->
      <g transform="translate(63.9125 300.439219) scale(0.1 -0.1)">
       <use xlink:href="#DejaVuSans-38"/>
       <use xlink:href="#DejaVuSans-30" x="63.623047"/>
       <use xlink:href="#DejaVuSans-30" x="127.246094"/>
      </g>
     </g>
    </g>
    <g id="ytick_3">
     <g id="line2d_12">
      <g>
       <use xlink:href="#m85ce47787a" x="90" y="247.68" style="stroke: #000000; stroke-width: 0.8"/>
      </g>
     </g>
     <g id="text_12">
      <!-- 1000 -->
      <g transform="translate(57.55 251.479219) scale(0.1 -0.1)">
       <use xlink:href="#DejaVuSans-31"/>
       <use xlink:href="#DejaVuSans-30" x="63.623047"/>
       <use xlink:href="#DejaVuSans-30" x="127.246094"/>
       <use xlink:href="#DejaVuSans-30" x="190.869141"/>
      </g>
     </g>
    </g>
    <g id="ytick_4">
     <g id="line2d_13">
      <g>
       <use xlink:href="#m85ce47787a" x="90" y="198.72" style="stroke: #000000; stroke-width: 0.8"/>
      </g>
     </g>
     <g id="text_13">
      <!-- 1200 -->
      <g transform="translate(57.55 202.519219) scale(0.1 -0.1)">
       <use xlink:href="#DejaVuSans-31"/>
       <use xlink:href="#DejaVuSans-32" x="63.623047"/>
       <use xlink:href="#DejaVuSans-30" x="127.246094"/>
       <use xlink:href="#DejaVuSans-30" x="190.869141"/>
      </g>
     </g>
    </g>
    <g id="ytick_5">
     <g id="line2d_14">
      <g>
       <use xlink:href="#m85ce47787a" x="90" y="149.76" style="stroke: #000000; stroke-width: 0.8"/>
      </g>
     </g>
     <g id="text_14">
      <!-- 1400 -->
      <g transform="translate(57.55 153.559219) scale(0.1 -0.1)">
       <defs>
        <path id="DejaVuSans-34" d="M 2419 4116 
L 825 1625 
L 2419 1625 
L 2419 4116 
z
M 2253 4666 
L 3047 4666 
L 3047 1625 
L 3713 1625 
L 3713 1100 
L 3047 1100 
L 3047 0 
L 2419 0 
L 2419 1100 
L 313 1100 
L 313 1709 
L 2253 4666 
z
" transform="scale(0.015625)"/>
       </defs>
       <use xlink:href="#DejaVuSans-31"/>
       <use xlink:href="#DejaVuSans-34" x="63.623047"/>
       <use xlink:href="#DejaVuSans-30" x="127.246094"/>
       <use xlink:href="#DejaVuSans-30" x="190.869141"/>
      </g>
     </g>
    </g>
    <g id="ytick_6">
     <g id="line2d_15">
      <g>
       <use xlink:href="#m85ce47787a" x="90" y="100.8" style="stroke: #000000; stroke-width: 0.8"/>
      </g>
     </g>
     <g id="text_15">
      <!-- 1600 -->
      <g transform="translate(57.55 104.599219) scale(0.1 -0.1)">
       <use xlink:href="#DejaVuSans-31"/>
       <use xlink:href="#DejaVuSans-36" x="63.623047"/>
       <use xlink:href="#DejaVuSans-30" x="127.246094"/>
       <use xlink:href="#DejaVuSans-30" x="190.869141"/>
      </g>
     </g>
    </g>
    <g id="ytick_7">
     <g id="line2d_16">
      <g>
       <use xlink:href="#m85ce47787a" x="90" y="51.84" style="stroke: #000000; stroke-width: 0.8"/>
      </g>
     </g>
     <g id="text_16">
      <!-- 1800 -->
      <g transform="translate(57.55 55.639219) scale(0.1 -0.1)">
       <use xlink:href="#DejaVuSans-31"/>
       <use xlink:href="#DejaVuSans-38" x="63.623047"/>
       <use xlink:href="#DejaVuSans-30" x="127.246094"/>
       <use xlink:href="#DejaVuSans-30" x="190.869141"/>
      </g>
     </g>
    </g>
   </g>
   <g id="line2d_17">
    <path d="M 88.854209 145.28016 
L 90.76386 145.69632 
L 91.145791 145.270368 
L 91.527721 147.382992 
L 92.673511 146.616768 
L 93.055441 146.795472 
L 93.437372 146.12472 
L 94.201232 142.237296 
L 95.728953 141.95088 
L 96.110883 142.264224 
L 96.492813 143.304624 
L 96.874743 142.2936 
L 98.020534 144.14184 
L 98.402464 142.908048 
L 98.784394 139.936176 
L 99.166324 143.90928 
L 99.548255 144.330336 
L 100.694045 144.712224 
L 101.839836 138.513888 
L 102.221766 137.914128 
L 103.367556 138.256848 
L 103.749487 138.0096 
L 104.131417 137.515104 
L 104.513347 137.933712 
L 104.895277 140.442912 
L 106.041068 141.591024 
L 106.804928 136.22256 
L 107.186858 135.852912 
L 107.568789 136.163808 
L 109.096509 135.150336 
L 109.478439 135.652176 
L 109.86037 135.958176 
L 110.2423 137.228688 
L 111.38809 137.674224 
L 111.770021 149.995008 
L 112.151951 148.090464 
L 112.533881 148.983984 
L 112.915811 152.900784 
L 114.061602 156.095424 
L 114.443532 150.883632 
L 114.825462 151.725744 
L 115.207392 149.297328 
L 115.589322 149.064768 
L 116.735113 148.14432 
L 117.117043 155.15784 
L 117.498973 152.900784 
L 117.880903 151.649856 
L 118.262834 152.95464 
L 119.408624 149.255712 
L 119.790554 147.081888 
L 120.172485 141.182208 
L 120.554415 141.304608 
L 120.936345 140.920272 
L 122.082136 140.58 
L 122.845996 145.542096 
L 123.227926 144.244656 
L 123.609856 144.653472 
L 124.755647 143.75016 
L 125.137577 140.513904 
L 125.519507 140.122224 
L 125.901437 139.047552 
L 127.429158 138.839472 
L 127.811088 137.914128 
L 128.193018 140.244624 
L 128.574949 138.05856 
L 130.102669 133.032816 
L 130.4846 132.261696 
L 130.86653 132.012 
L 131.24846 132.445296 
L 131.63039 129.11112 
L 132.776181 129.948336 
L 133.158111 130.075632 
L 133.540041 126.401184 
L 133.921971 126.6876 
L 134.303901 126.731664 
L 135.449692 129.595824 
L 135.831622 128.63376 
L 136.213552 126.278784 
L 136.595483 124.694928 
L 136.977413 123.904224 
L 138.123203 122.959296 
L 138.505133 123.390144 
L 138.887064 122.200416 
L 139.268994 127.368144 
L 139.650924 123.84792 
L 140.796715 124.50888 
L 141.178645 124.988688 
L 141.560575 121.818528 
L 141.942505 122.1588 
L 142.324435 119.7108 
L 143.470226 119.13552 
L 143.852156 119.375424 
L 144.234086 119.825856 
L 144.616016 123.441552 
L 144.997947 121.429296 
L 146.525667 120.846672 
L 146.907598 117.879696 
L 147.289528 117.784224 
L 147.671458 116.383968 
L 148.817248 115.688736 
L 149.199179 117.70344 
L 149.581109 121.025376 
L 149.963039 127.551744 
L 150.344969 123.402384 
L 151.49076 123.047424 
L 151.87269 126.9936 
L 152.25462 121.443984 
L 152.63655 119.656944 
L 153.01848 117.223632 
L 154.164271 117.67896 
L 154.546201 117.03024 
L 154.928131 122.136768 
L 155.310062 119.847888 
L 155.691992 124.653312 
L 156.837782 125.833248 
L 157.219713 127.020528 
L 157.601643 123.727968 
L 157.983573 123.882192 
L 158.365503 124.45992 
L 159.893224 119.191824 
L 160.657084 119.06208 
L 161.039014 117.828288 
L 162.184805 117.48312 
L 162.566735 122.802624 
L 162.948665 120.687552 
L 163.330595 113.60304 
L 163.712526 112.428 
L 164.858316 113.157504 
L 165.240246 113.194224 
L 165.622177 113.977584 
L 166.004107 112.286016 
L 166.386037 116.93232 
L 167.531828 115.103664 
L 167.913758 122.577408 
L 168.295688 120.851568 
L 168.677618 129.524832 
L 169.059548 135.32904 
L 170.205339 131.666832 
L 170.587269 136.229904 
L 170.969199 133.649712 
L 171.351129 132.08544 
L 171.73306 141.666912 
L 173.26078 130.981392 
L 173.64271 125.894448 
L 174.024641 136.763568 
L 174.406571 136.628928 
L 175.552361 136.805184 
L 176.316222 148.11984 
L 176.698152 147.001104 
L 177.080082 138.513888 
L 178.225873 138.60936 
L 178.607803 138.225024 
L 178.989733 134.075664 
L 179.371663 134.46 
L 179.753593 130.330224 
L 180.899384 133.409808 
L 181.281314 141.838272 
L 181.663244 134.151552 
L 182.045175 135.649728 
L 182.427105 131.647248 
L 183.954825 127.869984 
L 184.336756 132.063408 
L 184.718686 130.53096 
L 185.100616 136.65096 
L 186.246407 137.10384 
L 186.628337 132.259248 
L 187.010267 132.242112 
L 187.392197 129.20904 
L 187.774127 129.1356 
L 188.919918 130.99608 
L 189.301848 120.437856 
L 189.683778 118.173456 
L 190.065708 120.69 
L 190.447639 118.9764 
L 191.593429 120.939696 
L 191.975359 121.066992 
L 192.73922 117.598176 
L 193.12115 118.7316 
L 194.26694 113.764608 
L 194.648871 113.864976 
L 195.030801 115.588368 
L 195.412731 114.792768 
L 195.794661 111.181968 
L 196.940452 112.408416 
L 197.322382 109.33128 
L 197.704312 109.987344 
L 198.086242 111.960432 
L 198.468172 110.15136 
L 199.613963 113.355792 
L 199.995893 115.847856 
L 200.377823 115.184448 
L 200.759754 115.468416 
L 201.141684 125.125776 
L 202.287474 123.730416 
L 202.669405 120.484368 
L 203.051335 121.392576 
L 203.433265 121.75488 
L 203.815195 116.643456 
L 204.960986 115.248096 
L 205.342916 117.686304 
L 205.724846 113.191776 
L 206.106776 123.213888 
L 206.488706 122.91768 
L 207.634497 124.748784 
L 208.016427 120.317904 
L 208.398357 131.248224 
L 208.780287 131.456304 
L 209.162218 136.61424 
L 210.308008 140.168736 
L 210.689938 129.91896 
L 211.071869 132.482016 
L 211.453799 137.23848 
L 211.835729 135.380448 
L 212.98152 141.615504 
L 213.36345 140.04144 
L 213.74538 145.654704 
L 214.50924 139.79664 
L 215.655031 147.992544 
L 216.036961 142.849296 
L 216.418891 132.863904 
L 216.800821 132.692544 
L 217.182752 129.896928 
L 218.328542 132.031584 
L 218.710472 134.389008 
L 219.474333 123.483168 
L 219.856263 124.139232 
L 221.002053 121.372992 
L 221.383984 130.75128 
L 221.765914 128.562768 
L 222.147844 128.117232 
L 222.529774 133.12584 
L 223.675565 138.52368 
L 224.057495 136.300896 
L 224.439425 136.7856 
L 224.821355 135.042624 
L 225.203285 129.084192 
L 226.349076 126.14904 
L 227.112936 125.852832 
L 227.494867 131.089104 
L 227.876797 130.545648 
L 229.022587 133.025472 
L 229.786448 138.215232 
L 230.168378 138.215232 
L 230.550308 146.912976 
L 231.696099 145.799136 
L 232.078029 152.161488 
L 232.459959 147.524976 
L 232.841889 144.783216 
L 233.223819 149.510304 
L 234.36961 145.782 
L 234.75154 154.42344 
L 235.13347 156.32064 
L 235.5154 166.1004 
L 235.897331 168.073488 
L 237.425051 171.6696 
L 237.806982 164.79072 
L 238.188912 161.493264 
L 238.570842 166.746672 
L 240.098563 158.98896 
L 240.480493 160.577712 
L 241.244353 150.881184 
L 242.390144 154.455264 
L 242.772074 165.270528 
L 243.154004 167.76504 
L 243.535934 165.204432 
L 243.917864 166.580208 
L 245.063655 164.660976 
L 245.445585 162.279072 
L 245.827515 157.786992 
L 246.209446 162.279072 
L 246.591376 162.002448 
L 248.119097 162.298656 
L 248.501027 159.544656 
L 248.882957 163.828656 
L 249.264887 161.238672 
L 250.410678 156.66336 
L 250.792608 154.340208 
L 251.174538 154.651104 
L 251.556468 157.671936 
L 251.938398 166.741776 
L 253.084189 166.567968 
L 253.466119 167.6916 
L 253.848049 165.99024 
L 254.229979 173.177568 
L 254.61191 175.863024 
L 255.7577 180.759024 
L 256.13963 169.18488 
L 256.521561 172.093104 
L 256.903491 170.450496 
L 257.285421 177.143328 
L 258.431211 179.96832 
L 258.813142 166.714848 
L 259.195072 174.626784 
L 259.577002 167.015952 
L 261.104723 162.029376 
L 261.486653 161.268048 
L 261.868583 164.171376 
L 262.250513 167.933952 
L 262.632444 170.514144 
L 263.778234 168.68304 
L 264.160164 157.059936 
L 264.542094 157.708656 
L 264.924025 157.272912 
L 265.305955 157.00608 
L 266.451745 156.482208 
L 266.833676 158.195808 
L 267.215606 160.900848 
L 267.597536 159.41736 
L 267.979466 166.203216 
L 269.125257 167.307264 
L 269.507187 165.811536 
L 269.889117 158.398992 
L 270.271047 158.190912 
L 270.652977 152.127216 
L 271.798768 152.655984 
L 272.180698 155.649888 
L 272.562628 154.673136 
L 273.326489 150.288768 
L 274.472279 150.648624 
L 275.23614 153.287568 
L 275.61807 147.473568 
L 276 146.35728 
L 277.145791 147.926448 
L 277.527721 145.289952 
L 277.909651 151.578864 
L 278.291581 150.327936 
L 278.673511 152.629056 
L 279.819302 148.883616 
L 280.201232 149.015808 
L 280.583162 147.640032 
L 280.965092 143.990064 
L 281.347023 143.55432 
L 282.492813 143.240976 
L 282.874743 146.47968 
L 283.256674 152.034192 
L 283.638604 151.14312 
L 284.020534 155.652336 
L 285.548255 153.34632 
L 285.930185 152.002368 
L 286.312115 150.185952 
L 286.694045 149.666976 
L 287.839836 153.267984 
L 288.221766 155.23128 
L 288.603696 155.34144 
L 288.985626 148.76856 
L 289.367556 159.385536 
L 290.513347 159.121152 
L 290.895277 159.933888 
L 291.277207 165.552048 
L 291.659138 164.479824 
L 292.041068 159.544656 
L 293.186858 159.517728 
L 293.568789 161.772336 
L 293.950719 164.984112 
L 294.332649 163.755216 
L 294.714579 169.850736 
L 295.86037 169.8336 
L 296.2423 170.741808 
L 296.62423 168.861744 
L 297.00616 178.36488 
L 297.38809 179.532576 
L 298.533881 179.136 
L 298.915811 177.934032 
L 299.297741 183.659904 
L 299.679671 183.32208 
L 301.207392 185.914512 
L 301.589322 180.67824 
L 301.971253 187.779888 
L 302.353183 185.650128 
L 302.735113 189.052848 
L 303.880903 191.79216 
L 304.262834 195.070032 
L 304.644764 187.615872 
L 305.026694 183.953664 
L 305.408624 183.865536 
L 306.554415 184.032 
L 306.936345 179.8704 
L 307.318275 178.599888 
L 307.700205 185.858208 
L 308.082136 184.580352 
L 309.227926 190.306224 
L 309.991786 178.093152 
L 310.373717 182.225376 
L 310.755647 183.956112 
L 311.901437 186.722352 
L 312.283368 177.941376 
L 312.665298 176.886288 
L 313.047228 182.546064 
L 313.429158 175.140864 
L 314.574949 172.937664 
L 314.956879 176.788368 
L 315.338809 177.708816 
L 316.102669 174.68064 
L 317.24846 179.47872 
L 317.63039 182.394288 
L 318.01232 180.472608 
L 318.394251 179.694144 
L 318.776181 176.14944 
L 319.921971 182.357568 
L 320.303901 181.214352 
L 320.685832 178.729632 
L 321.067762 174.073536 
L 321.449692 178.443216 
L 322.977413 179.728416 
L 323.359343 180.364896 
L 323.741273 189.704016 
L 324.123203 188.362512 
L 325.268994 182.125008 
L 325.650924 192.719952 
L 326.032854 190.876608 
L 326.414784 186.71256 
L 326.796715 186.06384 
L 327.942505 200.50704 
L 328.324435 195.39072 
L 328.706366 209.395728 
L 329.470226 185.236416 
L 330.997947 201.603744 
L 331.379877 202.179024 
L 331.761807 196.472736 
L 332.143737 195.471504 
L 333.289528 221.628384 
L 333.671458 206.955072 
L 334.053388 208.252512 
L 334.435318 219.704256 
L 335.963039 233.753328 
L 336.344969 248.602896 
L 336.726899 251.366688 
L 337.10883 269.731584 
L 337.49076 272.350944 
L 338.63655 246.85992 
L 339.01848 248.167152 
L 339.400411 270.240768 
L 339.782341 260.793936 
L 340.164271 262.23336 
L 341.310062 251.25408 
L 341.691992 258.68376 
L 342.073922 272.948256 
L 342.455852 270.174672 
L 342.837782 277.846704 
L 343.983573 284.664384 
L 344.365503 262.243152 
L 344.747433 264.793968 
L 345.129363 258.918768 
L 345.511294 255.33 
L 346.657084 255.92976 
L 347.039014 246.2724 
L 347.802875 270.965376 
L 348.184805 264.573648 
L 349.330595 267.457392 
L 349.712526 272.41704 
L 350.094456 283.83696 
L 350.476386 269.396208 
L 350.858316 278.698608 
L 352.004107 284.2164 
L 352.386037 282.167424 
L 353.149897 308.282688 
L 353.531828 296.632656 
L 354.677618 283.956912 
L 355.059548 282.590928 
L 355.441478 275.175936 
L 356.205339 273.080448 
L 357.351129 292.671792 
L 357.73306 284.691312 
L 358.11499 279.322848 
L 358.49692 285.570144 
L 358.87885 278.018064 
L 360.024641 269.78544 
L 360.406571 274.933584 
L 360.788501 272.346048 
L 361.170431 278.625168 
L 361.552361 277.122096 
L 362.698152 279.854064 
L 363.080082 268.933536 
L 363.462012 271.077984 
L 363.843943 275.763456 
L 364.225873 275.126976 
L 365.371663 279.104976 
L 365.753593 281.178432 
L 366.135524 279.95688 
L 366.899384 278.81856 
L 368.045175 279.645984 
L 368.427105 274.451328 
L 369.572895 264.37536 
L 370.718686 265.44024 
L 371.100616 263.66544 
L 371.482546 270.53208 
L 371.864476 269.778096 
L 372.246407 274.52232 
L 373.392197 279.440352 
L 373.774127 279.065808 
L 374.156057 286.206624 
L 374.537988 285.932448 
L 374.919918 284.370624 
L 376.447639 295.362144 
L 376.829569 286.789248 
L 377.211499 289.908 
L 377.593429 288.81864 
L 378.73922 287.687664 
L 379.12115 285.450192 
L 379.50308 278.502768 
L 379.88501 285.589728 
L 380.26694 290.304576 
L 381.412731 290.412288 
L 381.794661 287.212752 
L 382.176591 288.750096 
L 382.558522 285.41592 
L 382.940452 279.84672 
L 384.086242 279.530928 
L 384.468172 289.991232 
L 384.850103 288.380448 
L 385.232033 288.025488 
L 385.613963 290.069568 
L 387.141684 299.291184 
L 387.523614 299.474784 
L 389.433265 310.512816 
L 389.815195 303.215328 
L 390.197125 305.23248 
L 390.579055 308.187216 
L 390.960986 312.529968 
L 392.106776 320.919264 
L 392.488706 322.018416 
L 392.870637 317.969424 
L 393.252567 325.39176 
L 393.634497 325.188576 
L 394.780287 326.865456 
L 395.162218 316.32192 
L 395.544148 315.891072 
L 395.926078 308.698848 
L 396.308008 307.27656 
L 397.453799 307.927728 
L 397.835729 301.996224 
L 398.217659 298.02312 
L 398.599589 300.547008 
L 398.98152 304.341408 
L 400.12731 291.029184 
L 400.50924 295.141824 
L 400.89117 293.242176 
L 401.273101 288.595872 
L 401.655031 292.737888 
L 402.800821 299.692656 
L 403.564682 293.927616 
L 403.946612 288.223776 
L 404.328542 286.236 
L 405.474333 287.954496 
L 405.856263 292.83336 
L 406.238193 290.480832 
L 406.620123 282.794112 
L 408.147844 282.262896 
L 408.529774 286.4808 
L 409.293634 280.65456 
L 409.675565 279.60192 
L 410.821355 288.710928 
L 411.203285 284.380416 
L 411.585216 285.97896 
L 411.967146 283.929984 
L 412.349076 280.426896 
L 413.876797 283.136832 
L 414.258727 278.612928 
L 414.640657 278.816112 
L 415.022587 277.663104 
L 416.168378 270.387648 
L 416.550308 271.22976 
L 416.932238 267.379056 
L 417.314168 270.350928 
L 417.696099 265.004496 
L 418.841889 269.898048 
L 419.223819 270.11592 
L 419.605749 276.096384 
L 419.98768 273.856464 
L 420.36961 276.350976 
L 421.5154 269.782992 
L 421.897331 270.169776 
L 422.279261 271.310544 
L 422.661191 275.016816 
L 423.043121 275.3424 
L 424.570842 269.631216 
L 424.952772 273.858912 
L 425.716632 267.474528 
L 426.862423 261.665424 
L 427.244353 261.207648 
L 427.626283 264.385152 
L 428.008214 261.765792 
L 428.390144 262.345968 
L 429.535934 262.578528 
L 429.917864 261.773136 
L 430.299795 262.57608 
L 430.681725 261.170928 
L 431.063655 260.847792 
L 432.209446 266.353344 
L 432.591376 269.229744 
L 432.973306 269.538192 
L 433.355236 267.663024 
L 433.737166 266.962896 
L 434.882957 273.863808 
L 435.264887 273.35952 
L 435.646817 271.929888 
L 436.028747 267.200352 
L 436.410678 267.53328 
L 437.556468 265.494096 
L 437.938398 267.430464 
L 438.320329 266.448816 
L 438.702259 273.036384 
L 440.229979 272.473344 
L 440.61191 276.803856 
L 440.99384 277.163712 
L 441.37577 276.399936 
L 441.7577 277.268976 
L 442.903491 271.90296 
L 443.285421 270.730368 
L 443.667351 264.159936 
L 444.049281 262.186848 
L 444.431211 262.274976 
L 445.958932 258.798816 
L 446.340862 258.923664 
L 446.722793 253.484208 
L 447.104723 252.757152 
L 448.250513 252.042336 
L 448.632444 252.669024 
L 449.014374 253.76328 
L 449.396304 250.9236 
L 449.778234 250.744896 
L 450.924025 247.036176 
L 451.305955 246.29688 
L 451.687885 247.014144 
L 452.069815 248.394816 
L 452.451745 245.114496 
L 453.597536 245.94192 
L 453.979466 249.06312 
L 454.361396 246.257712 
L 454.743326 244.563696 
L 456.271047 252.642096 
L 456.652977 250.208784 
L 457.034908 248.546592 
L 457.416838 245.875824 
L 457.798768 241.283376 
L 458.944559 241.420464 
L 459.326489 240.8256 
L 459.708419 240.796224 
L 460.090349 240.096096 
L 460.472279 240.597936 
L 461.61807 242.632224 
L 462 248.159808 
L 462.38193 248.9652 
L 462.76386 246.886848 
L 463.145791 243.66528 
L 464.673511 241.464528 
L 465.055441 239.511024 
L 465.437372 236.874528 
L 465.819302 237.219696 
L 466.965092 235.601568 
L 467.347023 234.796176 
L 467.728953 230.847552 
L 468.110883 231.648048 
L 468.492813 230.96016 
L 469.638604 231.851232 
L 470.020534 230.137632 
L 470.784394 235.249056 
L 471.166324 236.815776 
L 472.312115 232.262496 
L 472.694045 232.842672 
L 473.075975 233.706816 
L 473.457906 240.37272 
L 473.839836 241.508592 
L 474.985626 237.775392 
L 475.367556 234.284544 
L 475.749487 233.584416 
L 476.513347 230.179248 
L 477.659138 229.028688 
L 478.041068 229.763088 
L 478.422998 225.153504 
L 478.804928 224.042112 
L 479.186858 226.215936 
L 480.332649 223.711632 
L 480.714579 225.388512 
L 481.096509 227.75328 
L 481.478439 224.935632 
L 481.86037 228.19392 
L 483.38809 232.157232 
L 483.770021 237.244176 
L 484.151951 231.496272 
L 484.533881 238.820688 
L 486.061602 236.563632 
L 486.443532 236.2968 
L 486.825462 231.368976 
L 487.207392 230.71536 
L 488.353183 224.894016 
L 488.735113 224.911152 
L 489.117043 223.564752 
L 489.498973 226.323648 
L 489.880903 224.796096 
L 491.026694 220.92336 
L 491.408624 220.673664 
L 491.790554 220.80096 
L 492.172485 224.44848 
L 492.554415 225.310176 
L 493.700205 221.672448 
L 494.082136 221.81688 
L 494.464066 220.597776 
L 495.227926 225.283248 
L 496.373717 224.269776 
L 496.755647 221.031072 
L 497.137577 220.938048 
L 497.519507 223.219584 
L 497.901437 221.736096 
L 499.047228 222.4044 
L 499.429158 225.173088 
L 499.811088 224.19144 
L 500.193018 222.62472 
L 500.574949 221.630832 
L 501.720739 219.745872 
L 502.102669 221.258736 
L 502.4846 220.952736 
L 502.86653 224.159616 
L 503.24846 222.595344 
L 505.540041 216.717696 
L 507.067762 216.399456 
L 507.449692 216.78624 
L 507.831622 216.732384 
L 508.213552 219.50352 
L 510.123203 214.259904 
L 510.505133 214.108128 
L 511.268994 212.188896 
L 512.414784 211.699296 
L 512.796715 214.333344 
L 513.178645 212.017536 
L 513.560575 211.336992 
L 513.942505 214.379856 
L 515.470226 210.903696 
L 515.852156 213.887808 
L 516.616016 225.217152 
L 517.761807 223.988256 
L 518.143737 225.116784 
L 518.525667 223.812 
L 519.289528 229.596624 
L 520.435318 225.846288 
L 520.817248 222.387264 
L 521.199179 223.865856 
L 521.581109 232.230672 
L 521.963039 231.476688 
L 523.10883 233.790048 
L 523.49076 230.416704 
L 523.87269 231.001776 
L 524.25462 228.470544 
L 524.63655 229.195152 
L 526.546201 223.319952 
L 526.928131 221.5476 
L 527.310062 220.955184 
L 528.455852 221.239152 
L 528.837782 224.52192 
L 529.219713 221.917248 
L 529.601643 222.480288 
L 529.983573 222.100848 
L 531.511294 218.717712 
L 531.893224 218.600208 
L 532.275154 217.576944 
L 532.657084 213.72624 
L 533.802875 213.7752 
L 534.184805 213.29784 
L 534.948665 210.901248 
L 535.330595 210.962448 
L 536.476386 210.835152 
L 537.240246 206.991792 
L 537.622177 207.084816 
L 538.004107 208.53648 
L 539.149897 207.089712 
L 539.531828 205.043184 
L 539.913758 206.622144 
L 540.295688 207.109296 
L 540.677618 206.898768 
L 541.823409 205.275744 
L 542.205339 205.263504 
L 542.587269 206.203536 
L 542.969199 204.08112 
L 544.87885 201.305088 
L 545.26078 203.01624 
L 545.64271 202.039488 
L 546.024641 200.098224 
L 547.552361 199.38096 
L 547.934292 196.11288 
L 548.316222 195.863184 
L 548.698152 200.646576 
L 549.843943 199.327104 
L 550.225873 196.964784 
L 550.607803 197.265888 
L 550.989733 196.597584 
L 551.371663 194.489856 
L 552.517454 195.77016 
L 552.899384 202.707792 
L 553.281314 200.835072 
L 553.663244 197.060256 
L 554.045175 201.978288 
L 555.190965 198.166752 
L 555.572895 205.18272 
L 555.954825 207.075024 
L 556.336756 216.30888 
L 556.718686 220.536576 
L 557.864476 208.578096 
L 558.246407 209.542608 
L 558.628337 205.655184 
L 559.010267 209.138688 
L 559.392197 214.465536 
L 560.537988 214.157088 
L 560.919918 218.10816 
L 561.301848 219.51576 
L 561.683778 230.154768 
L 562.065708 226.213488 
L 563.211499 229.65048 
L 563.593429 229.557456 
L 563.975359 231.04584 
L 564.35729 222.450912 
L 564.73922 225.792432 
L 566.26694 230.370192 
L 566.648871 223.596576 
L 567.030801 222.507216 
L 567.412731 231.797376 
L 568.558522 235.324944 
L 568.940452 232.5024 
L 569.322382 234.047088 
L 569.704312 226.421568 
L 570.086242 225.25632 
L 571.232033 225.738576 
L 571.613963 219.471696 
L 571.995893 219.623472 
L 572.759754 218.913552 
L 573.905544 219.96864 
L 574.287474 224.348112 
L 574.669405 225.148608 
L 575.051335 229.640688 
L 575.433265 228.889152 
L 576.579055 229.425264 
L 576.960986 237.584448 
L 577.342916 240.162192 
L 577.724846 240.979824 
L 578.106776 242.152416 
L 579.634497 240.810912 
L 580.016427 232.925904 
L 580.780287 228.595392 
L 581.926078 228.402 
L 582.308008 224.340768 
L 582.689938 224.382384 
L 583.071869 224.061696 
L 583.453799 231.797376 
L 584.599589 230.238 
L 584.98152 227.244096 
L 585.36345 230.644368 
L 585.74538 224.749584 
L 586.12731 222.548832 
L 587.273101 219.525552 
L 587.655031 219.811968 
L 588.036961 221.699376 
L 588.418891 222.825456 
L 588.800821 222.80832 
L 589.946612 216.869472 
L 590.328542 218.191392 
L 590.710472 216.531648 
L 591.092402 216.881712 
L 591.474333 217.902528 
L 592.620123 216.397008 
L 593.002053 218.044512 
L 593.383984 225.777744 
L 594.147844 228.2796 
L 595.293634 228.247776 
L 595.675565 225.026208 
L 596.057495 224.629632 
L 596.439425 229.165776 
L 596.821355 230.130288 
L 597.967146 231.190272 
L 598.349076 234.982224 
L 598.731006 234.135216 
L 599.112936 236.120544 
L 599.494867 231.868368 
L 600.640657 235.704384 
L 601.022587 235.604016 
L 601.404517 228.025008 
L 601.786448 225.62352 
L 602.168378 222.095952 
L 603.696099 225.197568 
L 604.459959 222.176736 
L 604.841889 220.86216 
L 605.98768 217.83888 
L 606.36961 218.03472 
L 606.75154 217.062864 
L 607.13347 217.163232 
L 607.5154 216.935568 
L 608.661191 212.744592 
L 609.043121 213.461856 
L 609.425051 214.808256 
L 609.806982 217.121616 
L 610.188912 211.285584 
L 611.334702 212.879232 
L 611.716632 211.52304 
L 612.480493 213.11424 
L 612.862423 211.880448 
L 614.008214 214.135056 
L 614.390144 208.3284 
L 614.772074 208.519344 
L 615.154004 208.986912 
L 615.535934 207.25128 
L 616.681725 207.209664 
L 617.063655 206.120304 
L 617.445585 204.08112 
L 617.827515 205.131312 
L 618.209446 204.548688 
L 619.355236 202.462992 
L 619.737166 207.06768 
L 620.119097 204.063984 
L 620.882957 202.862016 
L 622.028747 202.240224 
L 622.410678 202.235328 
L 622.792608 203.01624 
L 623.174538 202.690656 
L 623.556468 202.817952 
L 624.702259 202.543776 
L 625.084189 200.294064 
L 625.466119 199.219392 
L 625.848049 193.564512 
L 626.229979 192.39192 
L 627.37577 193.0284 
L 627.7577 195.43968 
L 628.13963 194.139792 
L 628.521561 195.405408 
L 628.903491 198.913392 
L 630.049281 199.2708 
L 630.431211 204.022368 
L 630.813142 203.961168 
L 631.195072 199.530288 
L 631.577002 198.786096 
L 632.722793 199.248768 
L 633.104723 203.437296 
L 633.486653 199.12392 
L 634.250513 201.31488 
L 635.396304 201.716352 
L 635.778234 203.48136 
L 636.160164 197.234064 
L 636.542094 193.449456 
L 636.924025 192.670992 
L 638.069815 193.060224 
L 638.451745 192.906 
L 639.215606 190.6416 
L 639.597536 188.83008 
L 640.743326 188.815392 
L 641.125257 188.538768 
L 641.507187 190.095696 
L 641.889117 188.225424 
L 643.416838 187.194816 
L 643.798768 185.35392 
L 644.180698 184.315968 
L 644.562628 184.822704 
L 646.090349 184.634208 
L 646.854209 184.085856 
L 647.23614 184.550976 
L 647.61807 184.609728 
L 648.76386 181.126224 
L 648.76386 181.126224 
" clip-path="url(#p6f966bebfc)" style="fill: none; stroke: #000000; stroke-width: 1.5; stroke-linecap: square"/>
   </g>
   <g id="patch_3">
    <path d="M 90 345.6 
L 90 51.84 
" style="fill: none; stroke: #000000; stroke-width: 0.8; stroke-linejoin: miter; stroke-linecap: square"/>
   </g>
   <g id="patch_4">
    <path d="M 648 345.6 
L 648 51.84 
" style="fill: none; stroke: #000000; stroke-width: 0.8; stroke-linejoin: miter; stroke-linecap: square"/>
   </g>
   <g id="patch_5">
    <path d="M 90 345.6 
L 648 345.6 
" style="fill: none; stroke: #000000; stroke-width: 0.8; stroke-linejoin: miter; stroke-linecap: square"/>
   </g>
   <g id="patch_6">
    <path d="M 90 51.84 
L 648 51.84 
" style="fill: none; stroke: #000000; stroke-width: 0.8; stroke-linejoin: miter; stroke-linecap: square"/>
   </g>
   <g id="patch_7">
    <path d="M 199.086242 68.555668 
Q 199.086242 79.077098 199.086242 89.598528 
L 200.086242 89.598528 
Q 199.086242 91.59948 198.086242 93.600432 
Q 197.086242 91.59948 196.086242 89.598528 
L 197.086242 89.598528 
Q 197.086242 79.077098 197.086242 68.555668 
L 199.086242 68.555668 
z
" style="stroke: #000000; stroke-linecap: round"/>
   </g>
   <g id="text_17">
    <!-- Peak of bull market -->
    <g transform="translate(198.086242 64.478869) scale(0.1 -0.1)">
     <defs>
      <path id="DejaVuSans-50" d="M 1259 4147 
L 1259 2394 
L 2053 2394 
Q 2494 2394 2734 2622 
Q 2975 2850 2975 3272 
Q 2975 3691 2734 3919 
Q 2494 4147 2053 4147 
L 1259 4147 
z
M 628 4666 
L 2053 4666 
Q 2838 4666 3239 4311 
Q 3641 3956 3641 3272 
Q 3641 2581 3239 2228 
Q 2838 1875 2053 1875 
L 1259 1875 
L 1259 0 
L 628 0 
L 628 4666 
z
" transform="scale(0.015625)"/>
      <path id="DejaVuSans-65" d="M 3597 1894 
L 3597 1613 
L 953 1613 
Q 991 1019 1311 708 
Q 1631 397 2203 397 
Q 2534 397 2845 478 
Q 3156 559 3463 722 
L 3463 178 
Q 3153 47 2828 -22 
Q 2503 -91 2169 -91 
Q 1331 -91 842 396 
Q 353 884 353 1716 
Q 353 2575 817 3079 
Q 1281 3584 2069 3584 
Q 2775 3584 3186 3129 
Q 3597 2675 3597 1894 
z
M 3022 2063 
Q 3016 2534 2758 2815 
Q 2500 3097 2075 3097 
Q 1594 3097 1305 2825 
Q 1016 2553 972 2059 
L 3022 2063 
z
" transform="scale(0.015625)"/>
      <path id="DejaVuSans-61" d="M 2194 1759 
Q 1497 1759 1228 1600 
Q 959 1441 959 1056 
Q 959 750 1161 570 
Q 1363 391 1709 391 
Q 2188 391 2477 730 
Q 2766 1069 2766 1631 
L 2766 1759 
L 2194 1759 
z
M 3341 1997 
L 3341 0 
L 2766 0 
L 2766 531 
Q 2569 213 2275 61 
Q 1981 -91 1556 -91 
Q 1019 -91 701 211 
Q 384 513 384 1019 
Q 384 1609 779 1909 
Q 1175 2209 1959 2209 
L 2766 2209 
L 2766 2266 
Q 2766 2663 2505 2880 
Q 2244 3097 1772 3097 
Q 1472 3097 1187 3025 
Q 903 2953 641 2809 
L 641 3341 
Q 956 3463 1253 3523 
Q 1550 3584 1831 3584 
Q 2591 3584 2966 3190 
Q 3341 2797 3341 1997 
z
" transform="scale(0.015625)"/>
      <path id="DejaVuSans-6b" d="M 581 4863 
L 1159 4863 
L 1159 1991 
L 2875 3500 
L 3609 3500 
L 1753 1863 
L 3688 0 
L 2938 0 
L 1159 1709 
L 1159 0 
L 581 0 
L 581 4863 
z
" transform="scale(0.015625)"/>
      <path id="DejaVuSans-20" transform="scale(0.015625)"/>
      <path id="DejaVuSans-6f" d="M 1959 3097 
Q 1497 3097 1228 2736 
Q 959 2375 959 1747 
Q 959 1119 1226 758 
Q 1494 397 1959 397 
Q 2419 397 2687 759 
Q 2956 1122 2956 1747 
Q 2956 2369 2687 2733 
Q 2419 3097 1959 3097 
z
M 1959 3584 
Q 2709 3584 3137 3096 
Q 3566 2609 3566 1747 
Q 3566 888 3137 398 
Q 2709 -91 1959 -91 
Q 1206 -91 779 398 
Q 353 888 353 1747 
Q 353 2609 779 3096 
Q 1206 3584 1959 3584 
z
" transform="scale(0.015625)"/>
      <path id="DejaVuSans-66" d="M 2375 4863 
L 2375 4384 
L 1825 4384 
Q 1516 4384 1395 4259 
Q 1275 4134 1275 3809 
L 1275 3500 
L 2222 3500 
L 2222 3053 
L 1275 3053 
L 1275 0 
L 697 0 
L 697 3053 
L 147 3053 
L 147 3500 
L 697 3500 
L 697 3744 
Q 697 4328 969 4595 
Q 1241 4863 1831 4863 
L 2375 4863 
z
" transform="scale(0.015625)"/>
      <path id="DejaVuSans-62" d="M 3116 1747 
Q 3116 2381 2855 2742 
Q 2594 3103 2138 3103 
Q 1681 3103 1420 2742 
Q 1159 2381 1159 1747 
Q 1159 1113 1420 752 
Q 1681 391 2138 391 
Q 2594 391 2855 752 
Q 3116 1113 3116 1747 
z
M 1159 2969 
Q 1341 3281 1617 3432 
Q 1894 3584 2278 3584 
Q 2916 3584 3314 3078 
Q 3713 2572 3713 1747 
Q 3713 922 3314 415 
Q 2916 -91 2278 -91 
Q 1894 -91 1617 61 
Q 1341 213 1159 525 
L 1159 0 
L 581 0 
L 581 4863 
L 1159 4863 
L 1159 2969 
z
" transform="scale(0.015625)"/>
      <path id="DejaVuSans-75" d="M 544 1381 
L 544 3500 
L 1119 3500 
L 1119 1403 
Q 1119 906 1312 657 
Q 1506 409 1894 409 
Q 2359 409 2629 706 
Q 2900 1003 2900 1516 
L 2900 3500 
L 3475 3500 
L 3475 0 
L 2900 0 
L 2900 538 
Q 2691 219 2414 64 
Q 2138 -91 1772 -91 
Q 1169 -91 856 284 
Q 544 659 544 1381 
z
M 1991 3584 
L 1991 3584 
z
" transform="scale(0.015625)"/>
      <path id="DejaVuSans-6c" d="M 603 4863 
L 1178 4863 
L 1178 0 
L 603 0 
L 603 4863 
z
" transform="scale(0.015625)"/>
      <path id="DejaVuSans-6d" d="M 3328 2828 
Q 3544 3216 3844 3400 
Q 4144 3584 4550 3584 
Q 5097 3584 5394 3201 
Q 5691 2819 5691 2113 
L 5691 0 
L 5113 0 
L 5113 2094 
Q 5113 2597 4934 2840 
Q 4756 3084 4391 3084 
Q 3944 3084 3684 2787 
Q 3425 2491 3425 1978 
L 3425 0 
L 2847 0 
L 2847 2094 
Q 2847 2600 2669 2842 
Q 2491 3084 2119 3084 
Q 1678 3084 1418 2786 
Q 1159 2488 1159 1978 
L 1159 0 
L 581 0 
L 581 3500 
L 1159 3500 
L 1159 2956 
Q 1356 3278 1631 3431 
Q 1906 3584 2284 3584 
Q 2666 3584 2933 3390 
Q 3200 3197 3328 2828 
z
" transform="scale(0.015625)"/>
      <path id="DejaVuSans-72" d="M 2631 2963 
Q 2534 3019 2420 3045 
Q 2306 3072 2169 3072 
Q 1681 3072 1420 2755 
Q 1159 2438 1159 1844 
L 1159 0 
L 581 0 
L 581 3500 
L 1159 3500 
L 1159 2956 
Q 1341 3275 1631 3429 
Q 1922 3584 2338 3584 
Q 2397 3584 2469 3576 
Q 2541 3569 2628 3553 
L 2631 2963 
z
" transform="scale(0.015625)"/>
      <path id="DejaVuSans-74" d="M 1172 4494 
L 1172 3500 
L 2356 3500 
L 2356 3053 
L 1172 3053 
L 1172 1153 
Q 1172 725 1289 603 
Q 1406 481 1766 481 
L 2356 481 
L 2356 0 
L 1766 0 
Q 1100 0 847 248 
Q 594 497 594 1153 
L 594 3053 
L 172 3053 
L 172 3500 
L 594 3500 
L 594 4494 
L 1172 4494 
z
" transform="scale(0.015625)"/>
     </defs>
     <use xlink:href="#DejaVuSans-50"/>
     <use xlink:href="#DejaVuSans-65" x="56.677734"/>
     <use xlink:href="#DejaVuSans-61" x="118.201172"/>
     <use xlink:href="#DejaVuSans-6b" x="179.480469"/>
     <use xlink:href="#DejaVuSans-20" x="237.390625"/>
     <use xlink:href="#DejaVuSans-6f" x="269.177734"/>
     <use xlink:href="#DejaVuSans-66" x="330.359375"/>
     <use xlink:href="#DejaVuSans-20" x="365.564453"/>
     <use xlink:href="#DejaVuSans-62" x="397.351562"/>
     <use xlink:href="#DejaVuSans-75" x="460.828125"/>
     <use xlink:href="#DejaVuSans-6c" x="524.207031"/>
     <use xlink:href="#DejaVuSans-6c" x="551.990234"/>
     <use xlink:href="#DejaVuSans-20" x="579.773438"/>
     <use xlink:href="#DejaVuSans-6d" x="611.560547"/>
     <use xlink:href="#DejaVuSans-61" x="708.972656"/>
     <use xlink:href="#DejaVuSans-72" x="770.251953"/>
     <use xlink:href="#DejaVuSans-6b" x="811.365234"/>
     <use xlink:href="#DejaVuSans-65" x="865.650391"/>
     <use xlink:href="#DejaVuSans-74" x="927.173828"/>
    </g>
   </g>
   <g id="patch_8">
    <path d="M 257.521561 128.68834 
Q 257.521561 139.20977 257.521561 149.7312 
L 258.521561 149.7312 
Q 257.521561 151.732152 256.521561 153.733104 
Q 255.521561 151.732152 254.521561 149.7312 
L 255.521561 149.7312 
Q 255.521561 139.20977 255.521561 128.68834 
L 257.521561 128.68834 
z
" style="stroke: #000000; stroke-linecap: round"/>
   </g>
   <g id="text_18">
    <!-- Bear Stearns Fails -->
    <g transform="translate(256.521561 124.611541) scale(0.1 -0.1)">
     <defs>
      <path id="DejaVuSans-42" d="M 1259 2228 
L 1259 519 
L 2272 519 
Q 2781 519 3026 730 
Q 3272 941 3272 1375 
Q 3272 1813 3026 2020 
Q 2781 2228 2272 2228 
L 1259 2228 
z
M 1259 4147 
L 1259 2741 
L 2194 2741 
Q 2656 2741 2882 2914 
Q 3109 3088 3109 3444 
Q 3109 3797 2882 3972 
Q 2656 4147 2194 4147 
L 1259 4147 
z
M 628 4666 
L 2241 4666 
Q 2963 4666 3353 4366 
Q 3744 4066 3744 3513 
Q 3744 3084 3544 2831 
Q 3344 2578 2956 2516 
Q 3422 2416 3680 2098 
Q 3938 1781 3938 1306 
Q 3938 681 3513 340 
Q 3088 0 2303 0 
L 628 0 
L 628 4666 
z
" transform="scale(0.015625)"/>
      <path id="DejaVuSans-53" d="M 3425 4513 
L 3425 3897 
Q 3066 4069 2747 4153 
Q 2428 4238 2131 4238 
Q 1616 4238 1336 4038 
Q 1056 3838 1056 3469 
Q 1056 3159 1242 3001 
Q 1428 2844 1947 2747 
L 2328 2669 
Q 3034 2534 3370 2195 
Q 3706 1856 3706 1288 
Q 3706 609 3251 259 
Q 2797 -91 1919 -91 
Q 1588 -91 1214 -16 
Q 841 59 441 206 
L 441 856 
Q 825 641 1194 531 
Q 1563 422 1919 422 
Q 2459 422 2753 634 
Q 3047 847 3047 1241 
Q 3047 1584 2836 1778 
Q 2625 1972 2144 2069 
L 1759 2144 
Q 1053 2284 737 2584 
Q 422 2884 422 3419 
Q 422 4038 858 4394 
Q 1294 4750 2059 4750 
Q 2388 4750 2728 4690 
Q 3069 4631 3425 4513 
z
" transform="scale(0.015625)"/>
      <path id="DejaVuSans-6e" d="M 3513 2113 
L 3513 0 
L 2938 0 
L 2938 2094 
Q 2938 2591 2744 2837 
Q 2550 3084 2163 3084 
Q 1697 3084 1428 2787 
Q 1159 2491 1159 1978 
L 1159 0 
L 581 0 
L 581 3500 
L 1159 3500 
L 1159 2956 
Q 1366 3272 1645 3428 
Q 1925 3584 2291 3584 
Q 2894 3584 3203 3211 
Q 3513 2838 3513 2113 
z
" transform="scale(0.015625)"/>
      <path id="DejaVuSans-73" d="M 2834 3397 
L 2834 2853 
Q 2591 2978 2328 3040 
Q 2066 3103 1784 3103 
Q 1356 3103 1142 2972 
Q 928 2841 928 2578 
Q 928 2378 1081 2264 
Q 1234 2150 1697 2047 
L 1894 2003 
Q 2506 1872 2764 1633 
Q 3022 1394 3022 966 
Q 3022 478 2636 193 
Q 2250 -91 1575 -91 
Q 1294 -91 989 -36 
Q 684 19 347 128 
L 347 722 
Q 666 556 975 473 
Q 1284 391 1588 391 
Q 1994 391 2212 530 
Q 2431 669 2431 922 
Q 2431 1156 2273 1281 
Q 2116 1406 1581 1522 
L 1381 1569 
Q 847 1681 609 1914 
Q 372 2147 372 2553 
Q 372 3047 722 3315 
Q 1072 3584 1716 3584 
Q 2034 3584 2315 3537 
Q 2597 3491 2834 3397 
z
" transform="scale(0.015625)"/>
      <path id="DejaVuSans-46" d="M 628 4666 
L 3309 4666 
L 3309 4134 
L 1259 4134 
L 1259 2759 
L 3109 2759 
L 3109 2228 
L 1259 2228 
L 1259 0 
L 628 0 
L 628 4666 
z
" transform="scale(0.015625)"/>
      <path id="DejaVuSans-69" d="M 603 3500 
L 1178 3500 
L 1178 0 
L 603 0 
L 603 3500 
z
M 603 4863 
L 1178 4863 
L 1178 4134 
L 603 4134 
L 603 4863 
z
" transform="scale(0.015625)"/>
     </defs>
     <use xlink:href="#DejaVuSans-42"/>
     <use xlink:href="#DejaVuSans-65" x="68.603516"/>
     <use xlink:href="#DejaVuSans-61" x="130.126953"/>
     <use xlink:href="#DejaVuSans-72" x="191.40625"/>
     <use xlink:href="#DejaVuSans-20" x="232.519531"/>
     <use xlink:href="#DejaVuSans-53" x="264.306641"/>
     <use xlink:href="#DejaVuSans-74" x="327.783203"/>
     <use xlink:href="#DejaVuSans-65" x="366.992188"/>
     <use xlink:href="#DejaVuSans-61" x="428.515625"/>
     <use xlink:href="#DejaVuSans-72" x="489.794922"/>
     <use xlink:href="#DejaVuSans-6e" x="529.158203"/>
     <use xlink:href="#DejaVuSans-73" x="592.537109"/>
     <use xlink:href="#DejaVuSans-20" x="644.636719"/>
     <use xlink:href="#DejaVuSans-46" x="676.423828"/>
     <use xlink:href="#DejaVuSans-61" x="724.818359"/>
     <use xlink:href="#DejaVuSans-69" x="786.097656"/>
     <use xlink:href="#DejaVuSans-6c" x="813.880859"/>
     <use xlink:href="#DejaVuSans-73" x="841.664062"/>
    </g>
   </g>
   <g id="patch_9">
    <path d="M 328.942505 157.102276 
Q 328.942505 167.623706 328.942505 178.145136 
L 329.942505 178.145136 
Q 328.942505 180.146088 327.942505 182.14704 
Q 326.942505 180.146088 325.942505 178.145136 
L 326.942505 178.145136 
Q 326.942505 167.623706 326.942505 157.102276 
L 328.942505 157.102276 
z
" style="stroke: #000000; stroke-linecap: round"/>
   </g>
   <g id="text_19">
    <!-- Lehman Bankruptcy -->
    <g transform="translate(327.942505 153.025477) scale(0.1 -0.1)">
     <defs>
      <path id="DejaVuSans-4c" d="M 628 4666 
L 1259 4666 
L 1259 531 
L 3531 531 
L 3531 0 
L 628 0 
L 628 4666 
z
" transform="scale(0.015625)"/>
      <path id="DejaVuSans-68" d="M 3513 2113 
L 3513 0 
L 2938 0 
L 2938 2094 
Q 2938 2591 2744 2837 
Q 2550 3084 2163 3084 
Q 1697 3084 1428 2787 
Q 1159 2491 1159 1978 
L 1159 0 
L 581 0 
L 581 4863 
L 1159 4863 
L 1159 2956 
Q 1366 3272 1645 3428 
Q 1925 3584 2291 3584 
Q 2894 3584 3203 3211 
Q 3513 2838 3513 2113 
z
" transform="scale(0.015625)"/>
      <path id="DejaVuSans-70" d="M 1159 525 
L 1159 -1331 
L 581 -1331 
L 581 3500 
L 1159 3500 
L 1159 2969 
Q 1341 3281 1617 3432 
Q 1894 3584 2278 3584 
Q 2916 3584 3314 3078 
Q 3713 2572 3713 1747 
Q 3713 922 3314 415 
Q 2916 -91 2278 -91 
Q 1894 -91 1617 61 
Q 1341 213 1159 525 
z
M 3116 1747 
Q 3116 2381 2855 2742 
Q 2594 3103 2138 3103 
Q 1681 3103 1420 2742 
Q 1159 2381 1159 1747 
Q 1159 1113 1420 752 
Q 1681 391 2138 391 
Q 2594 391 2855 752 
Q 3116 1113 3116 1747 
z
" transform="scale(0.015625)"/>
      <path id="DejaVuSans-63" d="M 3122 3366 
L 3122 2828 
Q 2878 2963 2633 3030 
Q 2388 3097 2138 3097 
Q 1578 3097 1268 2742 
Q 959 2388 959 1747 
Q 959 1106 1268 751 
Q 1578 397 2138 397 
Q 2388 397 2633 464 
Q 2878 531 3122 666 
L 3122 134 
Q 2881 22 2623 -34 
Q 2366 -91 2075 -91 
Q 1284 -91 818 406 
Q 353 903 353 1747 
Q 353 2603 823 3093 
Q 1294 3584 2113 3584 
Q 2378 3584 2631 3529 
Q 2884 3475 3122 3366 
z
" transform="scale(0.015625)"/>
      <path id="DejaVuSans-79" d="M 2059 -325 
Q 1816 -950 1584 -1140 
Q 1353 -1331 966 -1331 
L 506 -1331 
L 506 -850 
L 844 -850 
Q 1081 -850 1212 -737 
Q 1344 -625 1503 -206 
L 1606 56 
L 191 3500 
L 800 3500 
L 1894 763 
L 2988 3500 
L 3597 3500 
L 2059 -325 
z
" transform="scale(0.015625)"/>
     </defs>
     <use xlink:href="#DejaVuSans-4c"/>
     <use xlink:href="#DejaVuSans-65" x="53.962891"/>
     <use xlink:href="#DejaVuSans-68" x="115.486328"/>
     <use xlink:href="#DejaVuSans-6d" x="178.865234"/>
     <use xlink:href="#DejaVuSans-61" x="276.277344"/>
     <use xlink:href="#DejaVuSans-6e" x="337.556641"/>
     <use xlink:href="#DejaVuSans-20" x="400.935547"/>
     <use xlink:href="#DejaVuSans-42" x="432.722656"/>
     <use xlink:href="#DejaVuSans-61" x="501.326172"/>
     <use xlink:href="#DejaVuSans-6e" x="562.605469"/>
     <use xlink:href="#DejaVuSans-6b" x="625.984375"/>
     <use xlink:href="#DejaVuSans-72" x="683.894531"/>
     <use xlink:href="#DejaVuSans-75" x="725.007812"/>
     <use xlink:href="#DejaVuSans-70" x="788.386719"/>
     <use xlink:href="#DejaVuSans-74" x="851.863281"/>
     <use xlink:href="#DejaVuSans-63" x="891.072266"/>
     <use xlink:href="#DejaVuSans-79" x="946.052734"/>
    </g>
   </g>
   <g id="text_20">
    <!-- Important dates in the 20082009 financial crisis -->
    <g transform="translate(221.580938 45.84) scale(0.12 -0.12)">
     <defs>
      <path id="DejaVuSans-49" d="M 628 4666 
L 1259 4666 
L 1259 0 
L 628 0 
L 628 4666 
z
" transform="scale(0.015625)"/>
      <path id="DejaVuSans-64" d="M 2906 2969 
L 2906 4863 
L 3481 4863 
L 3481 0 
L 2906 0 
L 2906 525 
Q 2725 213 2448 61 
Q 2172 -91 1784 -91 
Q 1150 -91 751 415 
Q 353 922 353 1747 
Q 353 2572 751 3078 
Q 1150 3584 1784 3584 
Q 2172 3584 2448 3432 
Q 2725 3281 2906 2969 
z
M 947 1747 
Q 947 1113 1208 752 
Q 1469 391 1925 391 
Q 2381 391 2643 752 
Q 2906 1113 2906 1747 
Q 2906 2381 2643 2742 
Q 2381 3103 1925 3103 
Q 1469 3103 1208 2742 
Q 947 2381 947 1747 
z
" transform="scale(0.015625)"/>
      <path id="DejaVuSans-2013" d="M 313 1978 
L 2888 1978 
L 2888 1528 
L 313 1528 
L 313 1978 
z
" transform="scale(0.015625)"/>
     </defs>
     <use xlink:href="#DejaVuSans-49"/>
     <use xlink:href="#DejaVuSans-6d" x="29.492188"/>
     <use xlink:href="#DejaVuSans-70" x="126.904297"/>
     <use xlink:href="#DejaVuSans-6f" x="190.380859"/>
     <use xlink:href="#DejaVuSans-72" x="251.5625"/>
     <use xlink:href="#DejaVuSans-74" x="292.675781"/>
     <use xlink:href="#DejaVuSans-61" x="331.884766"/>
     <use xlink:href="#DejaVuSans-6e" x="393.164062"/>
     <use xlink:href="#DejaVuSans-74" x="456.542969"/>
     <use xlink:href="#DejaVuSans-20" x="495.751953"/>
     <use xlink:href="#DejaVuSans-64" x="527.539062"/>
     <use xlink:href="#DejaVuSans-61" x="591.015625"/>
     <use xlink:href="#DejaVuSans-74" x="652.294922"/>
     <use xlink:href="#DejaVuSans-65" x="691.503906"/>
     <use xlink:href="#DejaVuSans-73" x="753.027344"/>
     <use xlink:href="#DejaVuSans-20" x="805.126953"/>
     <use xlink:href="#DejaVuSans-69" x="836.914062"/>
     <use xlink:href="#DejaVuSans-6e" x="864.697266"/>
     <use xlink:href="#DejaVuSans-20" x="928.076172"/>
     <use xlink:href="#DejaVuSans-74" x="959.863281"/>
     <use xlink:href="#DejaVuSans-68" x="999.072266"/>
     <use xlink:href="#DejaVuSans-65" x="1062.451172"/>
     <use xlink:href="#DejaVuSans-20" x="1123.974609"/>
     <use xlink:href="#DejaVuSans-32" x="1155.761719"/>
     <use xlink:href="#DejaVuSans-30" x="1219.384766"/>
     <use xlink:href="#DejaVuSans-30" x="1283.007812"/>
     <use xlink:href="#DejaVuSans-38" x="1346.630859"/>
     <use xlink:href="#DejaVuSans-2013" x="1410.253906"/>
     <use xlink:href="#DejaVuSans-32" x="1460.253906"/>
     <use xlink:href="#DejaVuSans-30" x="1523.876953"/>
     <use xlink:href="#DejaVuSans-30" x="1587.5"/>
     <use xlink:href="#DejaVuSans-39" x="1651.123047"/>
     <use xlink:href="#DejaVuSans-20" x="1714.746094"/>
     <use xlink:href="#DejaVuSans-66" x="1746.533203"/>
     <use xlink:href="#DejaVuSans-69" x="1781.738281"/>
     <use xlink:href="#DejaVuSans-6e" x="1809.521484"/>
     <use xlink:href="#DejaVuSans-61" x="1872.900391"/>
     <use xlink:href="#DejaVuSans-6e" x="1934.179688"/>
     <use xlink:href="#DejaVuSans-63" x="1997.558594"/>
     <use xlink:href="#DejaVuSans-69" x="2052.539062"/>
     <use xlink:href="#DejaVuSans-61" x="2080.322266"/>
     <use xlink:href="#DejaVuSans-6c" x="2141.601562"/>
     <use xlink:href="#DejaVuSans-20" x="2169.384766"/>
     <use xlink:href="#DejaVuSans-63" x="2201.171875"/>
     <use xlink:href="#DejaVuSans-72" x="2256.152344"/>
     <use xlink:href="#DejaVuSans-69" x="2297.265625"/>
     <use xlink:href="#DejaVuSans-73" x="2325.048828"/>
     <use xlink:href="#DejaVuSans-69" x="2377.148438"/>
     <use xlink:href="#DejaVuSans-73" x="2404.931641"/>
    </g>
   </g>
  </g>
 </g>
 <defs>
  <clipPath id="p6f966bebfc">
   <rect x="90" y="51.84" width="558" height="293.76"/>
  </clipPath>
 </defs>
</svg>
